<?xml version="1.0" encoding="iso-8859-1"?>
<!-- Uploaded to: SVG Repo, www.svgrepo.com, Generator: SVG Repo Mixer Tools -->
<svg height="800px" width="800px" version="1.1" id="Layer_1" xmlns="http://www.w3.org/2000/svg" xmlns:xlink="http://www.w3.org/1999/xlink" 
	 viewBox="0 0 512 512" xml:space="preserve">
<path style="fill:#2D8B99;" d="M512,486.4c0,14.136-11.464,25.6-25.6,25.6H25.6C11.464,512,0,500.536,0,486.4V40.96
	c0-14.136,11.464-25.6,25.6-25.6h460.8c14.136,0,25.6,11.464,25.6,25.6V486.4z"/>
<path style="fill:#39AEC0;" d="M512,471.04c0,14.136-11.464,25.6-25.6,25.6H25.6c-14.136,0-25.6-11.464-25.6-25.6V25.6
	C0,11.464,11.464,0,25.6,0h460.8C500.536,0,512,11.464,512,25.6V471.04z"/>
<path style="fill:#339EAE;" d="M486.4,496.64c14.136,0,25.6-11.464,25.6-25.6V245.955L392.817,123.126H373.75H213.837l-0.425-0.794
	l-18.294-18.294L101.862,71.03l-3.154,8.914l44.493,44.242l-0.067,0.184l0.302,0.108l116.803,144.748v92.677L182.42,410.25
	l86.241,86.241h6.82l-0.236,0.148H486.4z"/>
<polygon style="fill:#FFFFFF;" points="275.092,269.01 392.817,123.126 142.346,123.126 260.239,269.22 260.239,361.902 
	182.415,410.25 352.742,410.25 275.092,362.004 "/>
<polygon style="fill:#D8EDEE;" points="373.745,123.126 161.413,123.126 267.581,254.689 "/>
<polygon style="fill:#FBD800;" points="206.162,179.63 267.581,255.744 329.001,179.63 "/>
<circle style="fill:#F15B00;" cx="302.387" cy="158.515" r="21.468"/>
<polygon style="fill:#BD221F;" points="257.316,239.734 188.518,111.734 98.703,79.944 101.857,71.03 195.113,104.038 
	265.641,235.254 "/>
</svg>