<svg width="1200" height="1125" viewBox="0 0 1200 1125" fill="none" xmlns="http://www.w3.org/2000/svg">
<path d="M621.285 892.46C424.799 892.46 -9.86205 1456.71 144.83 687.138C-72.1037 594.152 -21.7732 528.539 141.045 511.479V517.187C-123.665 592.048 837.359 863.062 1097.03 866.941C1167.57 1430.78 823.431 892.46 621.285 892.46Z" fill="url(#paint0_linear_2019_262)"/>
<path fill-rule="evenodd" clip-rule="evenodd" d="M1062.91 631.245C925.482 -19.3074 426.346 -329.543 188.181 507.767C-52.1023 598.774 1676.89 1016.81 1070.06 667.137C1067.8 655.063 1065.42 643.098 1062.91 631.245ZM650.935 364.845C621.04 343.166 604.446 234.202 600.138 201.984C599.98 200.8 598.079 200.837 597.928 202.023C593.949 233.432 578.596 337.553 547.065 364.845C504.815 401.414 415.344 398.419 387.472 396.489C386.289 396.407 385.848 398.329 386.956 398.755C410.318 407.737 479.315 436.146 514.967 471.051C574.798 529.628 592.736 657.427 597.473 705.352C597.598 706.61 600.402 706.61 600.527 705.352C605.264 657.427 623.202 529.628 683.033 471.051C719.243 435.599 789.851 406.849 812.108 398.347C813.197 397.931 812.805 396.114 811.64 396.16C785.562 397.187 696.679 398.017 650.935 364.845Z" fill="url(#paint1_linear_2019_262)"/>
<defs>
<linearGradient id="paint0_linear_2019_262" x1="600" y1="-123" x2="600" y2="1221.5" gradientUnits="userSpaceOnUse">
<stop stop-color="#6F7385"/>
<stop offset="1" stop-color="#1A1B1F"/>
</linearGradient>
<linearGradient id="paint1_linear_2019_262" x1="600" y1="-123" x2="600" y2="1221.5" gradientUnits="userSpaceOnUse">
<stop stop-color="#6F7385"/>
<stop offset="1" stop-color="#1A1B1F"/>
</linearGradient>
</defs>
</svg>
