<svg width="537" height="347" viewBox="0 0 537 347" fill="none" xmlns="http://www.w3.org/2000/svg">
<rect width="537" height="347" fill="#F37021"/>
<rect width="537" height="347" fill="black" fill-opacity="0.05"/>
<path d="M129.163 187.223C123.973 187.128 119.915 186.092 116.877 183.981C115.829 183.364 114.889 182.645 114.057 181.82C110.863 178.654 109.332 173.994 109.215 167.633C108.58 160.358 108.627 150.059 108.697 135.107C108.739 125.919 108.79 114.973 108.695 101.893C108.694 101.734 108.769 101.584 108.896 101.489C109.023 101.394 109.187 101.365 109.339 101.41C115.105 103.14 119.271 104.536 122.212 106.885C125.193 109.267 126.87 112.583 127.81 118.01C128.748 123.417 128.967 130.991 128.984 141.959C128.991 145.976 128.97 150.448 128.947 155.441C128.929 159.176 128.91 163.201 128.901 167.545C133.38 167.536 137.523 167.516 141.359 167.499C146.354 167.475 150.828 167.455 154.846 167.461C165.818 167.478 173.395 167.697 178.804 168.634C184.232 169.575 187.55 171.251 189.933 174.231C192.283 177.171 193.679 181.335 195.409 187.099C195.455 187.251 195.426 187.415 195.331 187.542C195.235 187.669 195.085 187.744 194.927 187.742C181.842 187.648 170.892 187.699 161.701 187.741C146.743 187.811 136.44 187.858 129.163 187.223Z" fill="#271A11" stroke="#16100D" stroke-linecap="round" stroke-linejoin="round"/>
<path d="M264.602 136.353C268.342 132.768 271.946 130.643 275.59 129.991C276.768 129.688 277.941 129.533 279.114 129.528C283.614 129.509 287.996 131.711 292.581 136.106C298.18 140.779 305.437 148.062 315.971 158.635C322.445 165.132 330.157 172.872 339.483 182.012C339.596 182.123 339.65 182.282 339.628 182.44C339.605 182.597 339.509 182.735 339.369 182.81C334.064 185.65 330.129 187.598 326.386 188.013C322.591 188.434 319.058 187.28 314.551 184.123C310.061 180.977 304.544 175.799 296.769 168.092C293.921 165.269 290.77 162.106 287.252 158.576C284.62 155.935 281.784 153.088 278.715 150.023C275.552 153.182 272.634 156.111 269.932 158.823C266.414 162.353 263.263 165.516 260.415 168.339C252.639 176.046 247.122 181.223 242.632 184.369C238.125 187.527 234.592 188.681 230.798 188.26C227.054 187.845 223.119 185.896 217.815 183.057C217.674 182.982 217.578 182.844 217.556 182.687C217.533 182.529 217.587 182.37 217.701 182.259C227.027 173.119 234.738 165.379 241.212 158.882C251.747 148.309 259.003 141.026 264.602 136.353Z" fill="#271A11" stroke="#16100D" stroke-linecap="round" stroke-linejoin="round"/>
<path d="M402.839 181.518C399.099 185.103 395.495 187.228 391.852 187.88C390.673 188.183 389.5 188.338 388.327 188.343C383.827 188.362 379.446 186.16 374.86 181.765C369.261 177.092 362.005 169.809 351.47 159.236C344.996 152.739 337.284 144.999 327.959 135.859C327.845 135.747 327.791 135.589 327.814 135.431C327.836 135.273 327.932 135.136 328.073 135.061C333.377 132.221 337.312 130.273 341.055 129.858C344.85 129.436 348.383 130.591 352.89 133.748C357.38 136.894 362.897 142.071 370.673 149.779C373.521 152.602 376.672 155.764 380.19 159.295C382.821 161.936 385.658 164.783 388.726 167.848C391.889 164.689 394.808 161.76 397.51 159.048C401.027 155.518 404.179 152.355 407.027 149.532C414.802 141.825 420.319 136.647 424.809 133.501C429.316 130.344 432.849 129.19 436.644 129.611C440.387 130.026 444.322 131.974 449.627 134.814C449.767 134.889 449.863 135.027 449.886 135.184C449.908 135.342 449.854 135.501 449.741 135.612C440.415 144.752 432.703 152.492 426.229 158.989C415.695 169.562 408.438 176.845 402.839 181.518Z" fill="#271A11" stroke="#16100D" stroke-linecap="round" stroke-linejoin="round"/>
<path d="M124.579 227.564V215.927H128.726C129.632 215.927 130.382 216.092 130.976 216.422C131.571 216.751 132.016 217.202 132.312 217.774C132.607 218.342 132.755 218.982 132.755 219.694C132.755 220.41 132.605 221.054 132.306 221.626C132.01 222.194 131.563 222.645 130.965 222.978C130.37 223.308 129.622 223.473 128.721 223.473H125.868V221.984H128.562C129.133 221.984 129.597 221.886 129.954 221.689C130.31 221.488 130.571 221.215 130.738 220.871C130.904 220.526 130.988 220.134 130.988 219.694C130.988 219.255 130.904 218.865 130.738 218.524C130.571 218.183 130.308 217.916 129.948 217.723C129.592 217.53 129.122 217.433 128.539 217.433H126.334V227.564H124.579ZM141.533 227.564V215.927H145.681C146.582 215.927 147.33 216.083 147.925 216.393C148.523 216.704 148.97 217.134 149.266 217.683C149.561 218.228 149.709 218.859 149.709 219.575C149.709 220.287 149.559 220.914 149.26 221.456C148.965 221.994 148.518 222.412 147.919 222.711C147.325 223.011 146.576 223.16 145.675 223.16H142.533V221.649H145.516C146.084 221.649 146.546 221.568 146.902 221.405C147.262 221.242 147.525 221.005 147.692 220.694C147.859 220.384 147.942 220.011 147.942 219.575C147.942 219.136 147.857 218.755 147.686 218.433C147.52 218.111 147.256 217.865 146.897 217.694C146.541 217.52 146.073 217.433 145.493 217.433H143.289V227.564H141.533ZM147.277 222.314L150.152 227.564H148.152L145.334 222.314H147.277ZM158.565 227.564V215.927H165.861V217.439H160.321V220.984H165.48V222.49H160.321V226.052H165.929V227.564H158.565ZM174.926 215.927H177.057L180.761 224.973H180.898L184.602 215.927H186.733V227.564H185.062V219.143H184.954L181.523 227.547H180.136L176.704 219.138H176.597V227.564H174.926V215.927ZM197.761 215.927V227.564H196.005V215.927H197.761ZM214.521 215.927H216.282V223.581C216.282 224.395 216.091 225.117 215.708 225.746C215.326 226.371 214.788 226.863 214.095 227.223C213.402 227.579 212.589 227.757 211.657 227.757C210.729 227.757 209.919 227.579 209.225 227.223C208.532 226.863 207.994 226.371 207.612 225.746C207.229 225.117 207.038 224.395 207.038 223.581V215.927H208.794V223.439C208.794 223.965 208.909 224.433 209.14 224.842C209.375 225.251 209.706 225.573 210.135 225.808C210.563 226.039 211.07 226.155 211.657 226.155C212.248 226.155 212.758 226.039 213.186 225.808C213.617 225.573 213.947 225.251 214.174 224.842C214.405 224.433 214.521 223.965 214.521 223.439V215.927ZM225.555 215.927H227.685L231.39 224.973H231.526L235.231 215.927H237.362V227.564H235.691V219.143H235.583L232.151 227.547H230.765L227.333 219.138H227.225V227.564H225.555V215.927ZM267.253 219.711H265.481C265.412 219.333 265.286 218.999 265.1 218.711C264.914 218.424 264.687 218.179 264.418 217.978C264.149 217.778 263.848 217.626 263.515 217.524C263.185 217.422 262.835 217.371 262.464 217.371C261.793 217.371 261.193 217.539 260.662 217.876C260.136 218.213 259.719 218.708 259.412 219.359C259.109 220.011 258.958 220.806 258.958 221.746C258.958 222.693 259.109 223.492 259.412 224.143C259.719 224.795 260.138 225.287 260.668 225.621C261.198 225.954 261.795 226.121 262.458 226.121C262.825 226.121 263.174 226.071 263.503 225.973C263.837 225.871 264.138 225.721 264.407 225.524C264.676 225.327 264.903 225.086 265.089 224.802C265.278 224.514 265.409 224.185 265.481 223.814L267.253 223.819C267.159 224.391 266.975 224.918 266.702 225.399C266.433 225.876 266.087 226.289 265.662 226.638C265.242 226.982 264.761 227.249 264.219 227.439C263.678 227.628 263.087 227.723 262.446 227.723C261.439 227.723 260.541 227.484 259.753 227.007C258.965 226.526 258.344 225.838 257.89 224.944C257.439 224.05 257.214 222.984 257.214 221.746C257.214 220.503 257.441 219.437 257.895 218.547C258.35 217.653 258.971 216.967 259.759 216.49C260.547 216.009 261.443 215.768 262.446 215.768C263.064 215.768 263.64 215.857 264.174 216.035C264.712 216.21 265.195 216.467 265.623 216.808C266.051 217.145 266.405 217.558 266.685 218.047C266.965 218.532 267.155 219.086 267.253 219.711ZM276.074 227.564V215.927H277.83V220.984H283.631V215.927H285.392V227.564H283.631V222.49H277.83V227.564H276.074ZM304.777 221.746C304.777 222.988 304.55 224.056 304.095 224.95C303.641 225.84 303.018 226.526 302.226 227.007C301.438 227.484 300.542 227.723 299.538 227.723C298.531 227.723 297.631 227.484 296.84 227.007C296.052 226.526 295.431 225.838 294.976 224.944C294.521 224.05 294.294 222.984 294.294 221.746C294.294 220.503 294.521 219.437 294.976 218.547C295.431 217.653 296.052 216.967 296.84 216.49C297.631 216.009 298.531 215.768 299.538 215.768C300.542 215.768 301.438 216.009 302.226 216.49C303.018 216.967 303.641 217.653 304.095 218.547C304.55 219.437 304.777 220.503 304.777 221.746ZM303.038 221.746C303.038 220.799 302.885 220.001 302.578 219.353C302.275 218.702 301.859 218.21 301.328 217.876C300.802 217.539 300.205 217.371 299.538 217.371C298.868 217.371 298.27 217.539 297.743 217.876C297.217 218.21 296.8 218.702 296.493 219.353C296.19 220.001 296.038 220.799 296.038 221.746C296.038 222.693 296.19 223.492 296.493 224.143C296.8 224.791 297.217 225.283 297.743 225.621C298.27 225.954 298.868 226.121 299.538 226.121C300.205 226.121 300.802 225.954 301.328 225.621C301.859 225.283 302.275 224.791 302.578 224.143C302.885 223.492 303.038 222.693 303.038 221.746ZM323.351 219.711H321.578C321.51 219.333 321.383 218.999 321.197 218.711C321.012 218.424 320.785 218.179 320.516 217.978C320.247 217.778 319.946 217.626 319.612 217.524C319.283 217.422 318.932 217.371 318.561 217.371C317.891 217.371 317.29 217.539 316.76 217.876C316.233 218.213 315.817 218.708 315.51 219.359C315.207 220.011 315.055 220.806 315.055 221.746C315.055 222.693 315.207 223.492 315.51 224.143C315.817 224.795 316.235 225.287 316.766 225.621C317.296 225.954 317.892 226.121 318.555 226.121C318.923 226.121 319.271 226.071 319.601 225.973C319.934 225.871 320.235 225.721 320.504 225.524C320.773 225.327 321 225.086 321.186 224.802C321.375 224.514 321.506 224.185 321.578 223.814L323.351 223.819C323.256 224.391 323.072 224.918 322.8 225.399C322.531 225.876 322.184 226.289 321.76 226.638C321.339 226.982 320.858 227.249 320.317 227.439C319.775 227.628 319.184 227.723 318.544 227.723C317.536 227.723 316.639 227.484 315.851 227.007C315.063 226.526 314.442 225.838 313.987 224.944C313.536 224.05 313.311 222.984 313.311 221.746C313.311 220.503 313.538 219.437 313.993 218.547C314.447 217.653 315.069 216.967 315.857 216.49C316.644 216.009 317.54 215.768 318.544 215.768C319.161 215.768 319.737 215.857 320.271 216.035C320.809 216.21 321.292 216.467 321.72 216.808C322.148 217.145 322.502 217.558 322.783 218.047C323.063 218.532 323.252 219.086 323.351 219.711ZM342.28 221.746C342.28 222.988 342.052 224.056 341.598 224.95C341.143 225.84 340.52 226.526 339.728 227.007C338.941 227.484 338.045 227.723 337.041 227.723C336.033 227.723 335.134 227.484 334.342 227.007C333.554 226.526 332.933 225.838 332.478 224.944C332.024 224.05 331.797 222.984 331.797 221.746C331.797 220.503 332.024 219.437 332.478 218.547C332.933 217.653 333.554 216.967 334.342 216.49C335.134 216.009 336.033 215.768 337.041 215.768C338.045 215.768 338.941 216.009 339.728 216.49C340.52 216.967 341.143 217.653 341.598 218.547C342.052 219.437 342.28 220.503 342.28 221.746ZM340.541 221.746C340.541 220.799 340.388 220.001 340.081 219.353C339.778 218.702 339.361 218.21 338.831 217.876C338.304 217.539 337.708 217.371 337.041 217.371C336.371 217.371 335.772 217.539 335.246 217.876C334.719 218.21 334.302 218.702 333.996 219.353C333.693 220.001 333.541 220.799 333.541 221.746C333.541 222.693 333.693 223.492 333.996 224.143C334.302 224.791 334.719 225.283 335.246 225.621C335.772 225.954 336.371 226.121 337.041 226.121C337.708 226.121 338.304 225.954 338.831 225.621C339.361 225.283 339.778 224.791 340.081 224.143C340.388 223.492 340.541 222.693 340.541 221.746ZM351.189 227.564V215.927H352.944V226.052H358.217V227.564H351.189ZM368.516 227.564H366.653L370.84 215.927H372.869L377.056 227.564H375.193L371.903 218.041H371.812L368.516 227.564ZM368.829 223.007H374.874V224.484H368.829V223.007ZM383.508 217.439V215.927H392.513V217.439H388.883V227.564H387.133V217.439H383.508ZM401.224 227.564V215.927H408.519V217.439H402.979V220.984H408.138V222.49H402.979V226.052H408.587V227.564H401.224ZM423.931 218.984C423.87 218.446 423.62 218.03 423.181 217.734C422.741 217.435 422.188 217.285 421.522 217.285C421.044 217.285 420.632 217.361 420.283 217.513C419.935 217.66 419.664 217.865 419.471 218.126C419.281 218.384 419.186 218.677 419.186 219.007C419.186 219.283 419.251 219.522 419.38 219.723C419.512 219.924 419.685 220.092 419.897 220.228C420.113 220.361 420.344 220.473 420.59 220.564C420.836 220.651 421.073 220.723 421.3 220.78L422.436 221.075C422.808 221.166 423.188 221.289 423.578 221.444C423.969 221.6 424.33 221.804 424.664 222.058C424.997 222.312 425.266 222.626 425.471 223.001C425.679 223.376 425.783 223.825 425.783 224.348C425.783 225.007 425.613 225.592 425.272 226.103C424.935 226.615 424.444 227.018 423.8 227.314C423.16 227.609 422.385 227.757 421.476 227.757C420.605 227.757 419.851 227.619 419.215 227.342C418.578 227.066 418.08 226.674 417.721 226.166C417.361 225.655 417.162 225.049 417.124 224.348H418.885C418.919 224.768 419.056 225.119 419.294 225.399C419.537 225.675 419.846 225.882 420.221 226.018C420.599 226.151 421.014 226.217 421.465 226.217C421.961 226.217 422.402 226.139 422.789 225.984C423.179 225.825 423.486 225.605 423.709 225.325C423.933 225.041 424.044 224.71 424.044 224.331C424.044 223.986 423.946 223.704 423.749 223.484C423.556 223.264 423.292 223.083 422.959 222.939C422.63 222.795 422.257 222.668 421.84 222.558L420.465 222.183C419.533 221.929 418.794 221.556 418.249 221.064C417.707 220.571 417.436 219.92 417.436 219.109C417.436 218.439 417.618 217.853 417.982 217.353C418.346 216.853 418.838 216.465 419.459 216.189C420.08 215.908 420.781 215.768 421.561 215.768C422.349 215.768 423.044 215.907 423.647 216.183C424.253 216.46 424.73 216.84 425.078 217.325C425.427 217.806 425.609 218.359 425.624 218.984H423.931Z" fill="#271A11"/>
<path d="M274.591 180.565V180.357C274.524 180.357 274.46 180.389 274.421 180.444L274.591 180.565ZM277.087 180.565L277.126 180.36L277.107 180.357H277.087V180.565ZM272.926 195.286L273 195.481L273.008 195.477L273.017 195.473L272.926 195.286ZM273.551 193.251L273.722 193.369L273.736 193.348L273.745 193.325L273.551 193.251ZM272.114 189.923L272.205 189.736L272.201 189.734L272.197 189.733L272.114 189.923ZM277.503 185.348L277.611 185.17L277.604 185.165L277.597 185.162L277.503 185.348ZM278.544 175.989L278.748 175.952C278.73 175.853 278.644 175.781 278.544 175.781C278.443 175.781 278.357 175.853 278.339 175.952L278.544 175.989ZM278.336 187.012C278.336 187.127 278.429 187.22 278.544 187.22C278.659 187.22 278.752 187.127 278.752 187.012H278.336ZM282.497 180.565L282.666 180.444C282.627 180.389 282.564 180.357 282.497 180.357V180.565ZM280.208 180.565V180.357H280.189L280.17 180.36L280.208 180.565ZM284.043 195.286L283.953 195.473L283.961 195.477L283.97 195.481L284.043 195.286ZM283.419 193.251L283.225 193.325L283.234 193.348L283.248 193.369L283.419 193.251ZM284.855 189.923L284.773 189.733L284.768 189.734L284.764 189.736L284.855 189.923ZM279.584 185.556L279.491 185.37L279.484 185.373L279.477 185.378L279.584 185.556ZM278.336 187.22C278.336 187.334 278.429 187.428 278.544 187.428C278.659 187.428 278.752 187.334 278.752 187.22H278.336ZM275.122 183.719C274.522 183.319 273.877 182.661 273.453 182.103C273.239 181.821 273.093 181.58 273.033 181.421C273 181.333 273.008 181.309 273.004 181.322C273.001 181.337 272.988 181.363 272.96 181.382C272.936 181.398 272.918 181.396 272.926 181.396V180.981C272.864 180.981 272.792 180.993 272.726 181.038C272.657 181.085 272.618 181.152 272.601 181.219C272.571 181.338 272.605 181.466 272.643 181.567C272.725 181.784 272.901 182.064 273.121 182.354C273.566 182.939 274.243 183.633 274.892 184.065L275.122 183.719ZM272.926 181.396C273.241 181.396 273.572 181.425 273.87 181.352C274.194 181.273 274.478 181.082 274.76 180.685L274.421 180.444C274.184 180.777 273.979 180.897 273.771 180.948C273.538 181.005 273.296 180.981 272.926 180.981V181.396ZM274.591 180.773H277.087V180.357H274.591V180.773ZM273.473 188.661C274.27 188.979 274.958 189.226 275.459 189.641C275.94 190.04 276.255 190.602 276.255 191.587H276.671C276.671 190.492 276.311 189.807 275.725 189.321C275.16 188.853 274.392 188.58 273.628 188.274L273.473 188.661ZM272.853 195.091C272.054 195.391 271.134 195.488 270.322 195.416C269.499 195.344 268.831 195.102 268.497 194.768L268.202 195.062C268.64 195.499 269.428 195.755 270.285 195.831C271.152 195.908 272.135 195.805 273 195.481L272.853 195.091ZM268.497 194.768C267.532 193.803 267.63 192.456 268.313 191.773L268.019 191.479C267.162 192.335 267.087 193.946 268.202 195.062L268.497 194.768ZM268.313 191.773C268.857 191.229 269.733 191.226 270.367 191.537C270.681 191.691 270.903 191.907 270.993 192.134C271.077 192.345 271.059 192.596 270.826 192.876L271.147 193.142C271.465 192.758 271.526 192.349 271.38 191.98C271.24 191.627 270.923 191.346 270.55 191.164C269.812 190.801 268.727 190.771 268.019 191.479L268.313 191.773ZM270.826 192.876C270.605 193.143 270.402 193.265 270.226 193.28C270.061 193.293 269.852 193.215 269.602 192.919L269.284 193.187C269.581 193.538 269.908 193.723 270.26 193.694C270.601 193.667 270.897 193.443 271.147 193.142L270.826 192.876ZM269.602 192.919C269.38 192.656 269.202 192.466 269.051 192.352C268.906 192.242 268.724 192.155 268.535 192.24C268.45 192.277 268.389 192.34 268.342 192.401C268.296 192.463 268.256 192.536 268.219 192.612C268.149 192.755 268.067 192.962 267.976 193.166L268.356 193.336C268.461 193.101 268.525 192.933 268.593 192.793C268.626 192.727 268.652 192.682 268.675 192.651C268.698 192.621 268.708 192.618 268.704 192.619C268.674 192.633 268.683 192.595 268.799 192.683C268.91 192.767 269.063 192.925 269.284 193.187L269.602 192.919ZM267.976 193.166C267.737 193.701 267.847 194.222 268.181 194.623C268.508 195.016 269.043 195.29 269.661 195.39C270.906 195.59 272.535 195.095 273.722 193.369L273.379 193.133C272.278 194.734 270.806 195.153 269.727 194.979C269.183 194.891 268.749 194.655 268.501 194.357C268.259 194.067 268.187 193.714 268.356 193.336L267.976 193.166ZM273.745 193.325C274.074 192.468 274.041 191.73 273.733 191.118C273.429 190.513 272.871 190.06 272.205 189.736L272.023 190.11C272.64 190.41 273.112 190.809 273.361 191.305C273.608 191.795 273.651 192.408 273.356 193.176L273.745 193.325ZM272.197 189.733C270.808 189.129 269.105 189.131 267.099 189.748C265.093 190.366 262.767 191.604 260.115 193.498L260.357 193.836C262.989 191.956 265.274 190.745 267.221 190.146C269.168 189.547 270.763 189.563 272.031 190.114L272.197 189.733ZM260.115 193.498C257.952 195.042 255.791 195.912 253.973 196.163C252.148 196.414 250.711 196.037 249.931 195.149L249.618 195.423C250.531 196.462 252.14 196.835 254.03 196.575C255.928 196.314 258.151 195.411 260.357 193.836L260.115 193.498ZM249.931 195.149C249.182 194.296 249.102 193.245 249.452 192.481C249.8 191.725 250.569 191.241 251.58 191.495L251.681 191.092C250.46 190.785 249.498 191.384 249.074 192.308C248.654 193.223 248.762 194.449 249.618 195.423L249.931 195.149ZM251.58 191.495C252.163 191.641 252.467 192.057 252.507 192.398C252.527 192.567 252.483 192.711 252.39 192.813C252.297 192.914 252.131 192.998 251.855 192.998V193.414C252.217 193.414 252.506 193.301 252.696 193.095C252.885 192.889 252.952 192.617 252.92 192.349C252.858 191.816 252.412 191.275 251.681 191.092L251.58 191.495ZM251.855 192.998C251.652 192.998 251.477 192.956 251.36 192.898C251.302 192.869 251.266 192.84 251.247 192.817C251.238 192.806 251.234 192.799 251.232 192.795C251.232 192.793 251.231 192.792 251.231 192.791C251.231 192.791 251.231 192.79 251.231 192.79H250.815C250.815 193.026 251.002 193.184 251.174 193.27C251.36 193.363 251.601 193.414 251.855 193.414V192.998ZM251.231 192.79C251.231 192.584 251.105 192.423 250.955 192.324C250.804 192.223 250.606 192.166 250.399 192.166V192.582C250.535 192.582 250.65 192.62 250.724 192.67C250.801 192.721 250.815 192.768 250.815 192.79H251.231ZM250.399 192.166C250.091 192.166 249.855 192.314 249.708 192.544C249.567 192.765 249.513 193.051 249.528 193.342C249.557 193.925 249.862 194.608 250.46 195.026L250.699 194.685C250.217 194.349 249.967 193.791 249.943 193.322C249.932 193.087 249.978 192.895 250.058 192.768C250.134 192.65 250.242 192.582 250.399 192.582V192.166ZM250.46 195.026C251.15 195.508 252.356 195.784 253.717 195.739C255.086 195.693 256.645 195.321 258.055 194.469L257.84 194.113C256.498 194.924 255.011 195.28 253.703 195.323C252.387 195.367 251.285 195.094 250.699 194.685L250.46 195.026ZM258.055 194.469C259.43 193.638 261.576 192.225 263.614 190.958C264.637 190.322 265.637 189.719 266.51 189.238C267.386 188.754 268.121 188.4 268.617 188.251L268.498 187.852C267.954 188.015 267.186 188.389 266.308 188.874C265.427 189.36 264.42 189.967 263.394 190.605C261.336 191.885 259.217 193.28 257.84 194.113L258.055 194.469ZM268.617 188.251C270.631 187.647 272.033 188.085 273.473 188.661L273.628 188.274C272.156 187.686 270.645 187.208 268.498 187.852L268.617 188.251ZM277.503 185.348C277.597 185.162 277.597 185.162 277.597 185.162C277.597 185.162 277.596 185.162 277.597 185.162C277.596 185.162 277.596 185.162 277.596 185.162C277.595 185.161 277.594 185.161 277.593 185.16C277.591 185.159 277.588 185.157 277.583 185.155C277.574 185.15 277.56 185.143 277.542 185.134C277.506 185.116 277.453 185.089 277.385 185.053C277.25 184.982 277.057 184.879 276.824 184.75C276.359 184.492 275.74 184.131 275.122 183.719L274.892 184.065C275.522 184.485 276.151 184.852 276.622 185.114C276.858 185.245 277.055 185.349 277.192 185.422C277.261 185.458 277.316 185.486 277.353 185.505C277.371 185.514 277.386 185.521 277.395 185.526C277.4 185.529 277.404 185.531 277.406 185.532C277.408 185.533 277.409 185.533 277.409 185.533C277.41 185.534 277.41 185.534 277.41 185.534C277.41 185.534 277.41 185.534 277.41 185.534C277.41 185.534 277.41 185.534 277.503 185.348ZM273.017 195.473C273.326 195.325 274.23 194.911 275.057 194.268C275.876 193.631 276.671 192.727 276.671 191.587H276.255C276.255 192.527 275.595 193.322 274.801 193.94C274.015 194.551 273.151 194.947 272.836 195.099L273.017 195.473ZM277.049 180.769C277.219 180.801 277.354 180.708 277.442 180.616C277.533 180.521 277.613 180.388 277.684 180.24C277.828 179.942 277.966 179.523 278.094 179.056C278.352 178.119 278.582 176.942 278.748 176.026L278.339 175.952C278.173 176.867 277.945 178.028 277.693 178.946C277.567 179.407 277.437 179.796 277.309 180.059C277.245 180.193 277.188 180.28 277.141 180.329C277.092 180.38 277.091 180.354 277.126 180.36L277.049 180.769ZM277.396 185.526C277.549 185.618 277.788 185.808 277.988 186.071C278.187 186.334 278.336 186.655 278.336 187.012H278.752C278.752 186.537 278.554 186.13 278.319 185.82C278.086 185.512 277.805 185.286 277.611 185.17L277.396 185.526ZM282.196 184.273C282.844 183.841 283.521 183.147 283.966 182.562C284.187 182.272 284.362 181.992 284.444 181.775C284.482 181.674 284.516 181.546 284.486 181.427C284.469 181.36 284.43 181.293 284.361 181.246C284.296 181.201 284.223 181.188 284.161 181.188V181.604C284.169 181.604 284.152 181.606 284.127 181.59C284.099 181.571 284.087 181.545 284.083 181.53C284.08 181.517 284.088 181.541 284.055 181.629C283.995 181.788 283.849 182.029 283.635 182.31C283.21 182.869 282.565 183.527 281.965 183.927L282.196 184.273ZM284.161 181.188C283.826 181.188 283.576 181.162 283.351 181.064C283.129 180.966 282.911 180.788 282.666 180.444L282.327 180.685C282.601 181.07 282.873 181.308 283.183 181.444C283.49 181.579 283.812 181.604 284.161 181.604V181.188ZM282.497 180.357H280.208V180.773H282.497V180.357ZM283.342 188.274C282.578 188.58 281.81 188.853 281.245 189.321C280.659 189.807 280.298 190.492 280.298 191.587H280.714C280.714 190.602 281.03 190.04 281.51 189.641C282.012 189.226 282.7 188.979 283.496 188.661L283.342 188.274ZM283.97 195.481C284.835 195.805 285.818 195.908 286.685 195.831C287.542 195.755 288.33 195.499 288.767 195.062L288.473 194.768C288.139 195.102 287.47 195.344 286.648 195.416C285.835 195.488 284.916 195.391 284.116 195.091L283.97 195.481ZM288.767 195.062C289.883 193.946 289.808 192.335 288.951 191.479L288.657 191.773C289.34 192.456 289.438 193.803 288.473 194.768L288.767 195.062ZM288.951 191.479C288.243 190.771 287.158 190.801 286.419 191.164C286.047 191.346 285.73 191.627 285.59 191.98C285.444 192.349 285.505 192.758 285.823 193.142L286.143 192.876C285.911 192.596 285.893 192.345 285.976 192.134C286.066 191.907 286.288 191.691 286.602 191.537C287.236 191.226 288.113 191.229 288.657 191.773L288.951 191.479ZM285.823 193.142C286.073 193.443 286.369 193.667 286.71 193.694C287.062 193.723 287.389 193.538 287.685 193.187L287.367 192.919C287.117 193.215 286.909 193.293 286.744 193.28C286.568 193.265 286.365 193.143 286.143 192.876L285.823 193.142ZM287.685 193.187C287.906 192.925 288.06 192.767 288.17 192.683C288.287 192.595 288.296 192.633 288.266 192.619C288.261 192.618 288.272 192.621 288.295 192.651C288.318 192.682 288.344 192.727 288.376 192.793C288.445 192.933 288.509 193.101 288.614 193.336L288.994 193.166C288.903 192.962 288.82 192.755 288.751 192.612C288.714 192.536 288.674 192.463 288.627 192.401C288.581 192.34 288.519 192.277 288.435 192.24C288.246 192.155 288.064 192.242 287.919 192.352C287.768 192.466 287.589 192.656 287.367 192.919L287.685 193.187ZM288.614 193.336C288.783 193.714 288.71 194.067 288.469 194.357C288.221 194.655 287.787 194.891 287.243 194.979C286.164 195.153 284.691 194.734 283.591 193.133L283.248 193.369C284.435 195.095 286.064 195.59 287.309 195.39C287.927 195.29 288.462 195.016 288.789 194.623C289.123 194.222 289.233 193.701 288.994 193.166L288.614 193.336ZM283.613 193.176C283.318 192.408 283.362 191.795 283.608 191.305C283.858 190.809 284.33 190.41 284.946 190.11L284.764 189.736C284.099 190.06 283.541 190.513 283.236 191.118C282.929 191.73 282.896 192.468 283.225 193.325L283.613 193.176ZM284.938 190.114C286.207 189.563 287.801 189.547 289.748 190.146C291.696 190.745 293.981 191.956 296.613 193.836L296.855 193.498C294.203 191.604 291.877 190.366 289.871 189.748C287.864 189.131 286.161 189.129 284.773 189.733L284.938 190.114ZM296.613 193.836C298.819 195.411 301.042 196.314 302.94 196.575C304.829 196.835 306.439 196.462 307.351 195.423L307.039 195.149C306.258 196.037 304.822 196.414 302.996 196.163C301.179 195.912 299.018 195.042 296.855 193.498L296.613 193.836ZM307.351 195.423C308.207 194.449 308.316 193.223 307.895 192.308C307.472 191.384 306.51 190.785 305.288 191.092L305.39 191.495C306.401 191.241 307.17 191.725 307.517 192.481C307.868 193.245 307.788 194.296 307.039 195.149L307.351 195.423ZM305.288 191.092C304.558 191.275 304.112 191.816 304.049 192.349C304.018 192.617 304.085 192.889 304.274 193.095C304.463 193.301 304.753 193.414 305.115 193.414V192.998C304.839 192.998 304.673 192.914 304.58 192.813C304.486 192.711 304.443 192.567 304.463 192.398C304.502 192.057 304.806 191.641 305.39 191.495L305.288 191.092ZM305.115 193.414C305.369 193.414 305.61 193.363 305.795 193.27C305.968 193.184 306.155 193.026 306.155 192.79H305.739C305.739 192.79 305.739 192.791 305.739 192.791C305.739 192.792 305.738 192.793 305.737 192.795C305.736 192.799 305.732 192.806 305.722 192.817C305.703 192.84 305.668 192.869 305.609 192.898C305.493 192.956 305.318 192.998 305.115 192.998V193.414ZM306.155 192.79C306.155 192.768 306.169 192.721 306.245 192.67C306.32 192.62 306.435 192.582 306.571 192.582V192.166C306.364 192.166 306.166 192.223 306.015 192.324C305.865 192.423 305.739 192.584 305.739 192.79H306.155ZM306.571 192.582C306.728 192.582 306.836 192.65 306.911 192.768C306.992 192.895 307.038 193.087 307.026 193.322C307.003 193.791 306.753 194.349 306.271 194.685L306.509 195.026C307.108 194.608 307.413 193.925 307.442 193.342C307.456 193.051 307.403 192.765 307.262 192.544C307.115 192.314 306.878 192.166 306.571 192.166V192.582ZM306.271 194.685C305.682 195.096 304.676 195.367 303.463 195.323C302.257 195.28 300.866 194.926 299.522 194.113L299.306 194.469C300.714 195.319 302.174 195.693 303.448 195.739C304.717 195.785 305.823 195.506 306.509 195.026L306.271 194.685ZM299.522 194.113C298.145 193.28 296.026 191.885 293.967 190.605C292.942 189.967 291.935 189.36 291.053 188.874C290.175 188.389 289.407 188.015 288.864 187.852L288.744 188.251C289.241 188.4 289.975 188.754 290.852 189.238C291.724 189.719 292.724 190.322 293.747 190.958C295.786 192.225 297.932 193.638 299.306 194.469L299.522 194.113ZM288.864 187.852C286.719 187.209 284.819 187.684 283.342 188.274L283.496 188.661C284.932 188.087 286.728 187.646 288.744 188.251L288.864 187.852ZM279.584 185.556C279.677 185.742 279.677 185.742 279.677 185.742C279.677 185.742 279.677 185.742 279.677 185.742C279.677 185.742 279.678 185.742 279.678 185.741C279.679 185.741 279.68 185.741 279.681 185.74C279.684 185.739 279.687 185.737 279.692 185.734C279.702 185.729 279.716 185.722 279.735 185.713C279.772 185.694 279.826 185.666 279.895 185.63C280.033 185.557 280.229 185.453 280.465 185.322C280.936 185.06 281.566 184.693 282.196 184.273L281.965 183.927C281.347 184.339 280.728 184.7 280.263 184.958C280.031 185.087 279.837 185.19 279.702 185.261C279.634 185.297 279.581 185.324 279.545 185.342C279.527 185.351 279.514 185.358 279.504 185.363C279.5 185.365 279.496 185.367 279.494 185.368C279.493 185.369 279.492 185.369 279.492 185.37C279.491 185.37 279.491 185.37 279.491 185.37C279.491 185.37 279.491 185.37 279.491 185.37C279.491 185.37 279.491 185.37 279.584 185.556ZM284.133 195.099C283.818 194.947 282.954 194.551 282.169 193.94C281.375 193.322 280.714 192.527 280.714 191.587H280.298C280.298 192.727 281.094 193.631 281.913 194.268C282.74 194.911 283.644 195.325 283.953 195.473L284.133 195.099ZM280.17 180.36C280.202 180.354 280.196 180.378 280.139 180.323C280.087 180.272 280.022 180.183 279.948 180.049C279.802 179.785 279.647 179.396 279.495 178.936C279.192 178.019 278.913 176.86 278.748 175.952L278.339 176.026C278.507 176.949 278.79 178.128 279.1 179.066C279.255 179.534 279.419 179.952 279.584 180.25C279.666 180.398 279.754 180.529 279.85 180.622C279.941 180.71 280.079 180.8 280.246 180.769L280.17 180.36ZM279.477 185.378C279.282 185.494 279.002 185.72 278.768 186.028C278.534 186.337 278.336 186.745 278.336 187.22H278.752C278.752 186.863 278.901 186.542 279.1 186.279C279.299 186.016 279.539 185.826 279.691 185.734L279.477 185.378Z" fill="#271A11"/>
</svg>
