<svg width="97" height="55" viewBox="0 0 97 55" fill="none" xmlns="http://www.w3.org/2000/svg">
<path d="M22.8 54.8015L0 0.000774384L65 54.8008L22.8 54.8015Z" fill="#E62E2F"/>
<path d="M37.5686 31.6737L31.9 0L96.8 54.8L65 54.8008L37.5686 31.6737Z" fill="#1D2D61"/>
<path d="M38.9 23.9C38.9 20 38.9 5.91063 38.9 5.91063L39.598 6.5C39.598 6.5 40 21 40.3 24.1C40.446 25.6086 41.3 27.85 41.3 27.85L42.3 31.6001C42.3 31.6001 44.5 27.5 46 24.5C46.8092 22.8817 48.3534 13.8929 48.3534 13.8929L49.0724 14.5C49.0724 14.5 47.5868 23 47.5 25C47.4322 26.5606 47.5 27.4379 47.5 29C47.5 30.5622 47.5 33.0001 47.5 33.0001C47.5 33.0001 48.6691 31.4694 49.5 30.5C50.3309 29.5306 51.5 29 52.5 27.5C53.2896 26.3156 56.5 20.7717 56.5 20.7717L57 21.1938C57 21.1938 54.1121 26.6392 53.6 28.0001C53.0879 29.3609 53.1293 30.3942 52.7583 31.8001C52.3873 33.206 51.7 35.2001 51.7 35.2001C51.7 35.2001 53.5503 33.8897 54.8 33.0501C56.0497 32.2105 56.9756 32.0034 58 30.9001C59.3 29.5 62.5 25.8379 62.5 25.8379L63.1 26.3445C63.1 26.3445 60.0357 30.6394 59.1652 31.8001C58.2947 32.9608 58.2029 33.7809 57.5 35.0501C56.797 36.3193 55.7 38.3001 55.7 38.3001C55.7 38.3001 57.955 37.3859 59.4 36.8001C60.8449 36.2143 61.8132 36.1806 63.1 35.3001C65 34 68.6829 31.0586 68.6829 31.0586L69.5869 31.8219C69.5869 31.8219 65.55 35.0501 64 36.4001C62.9063 37.3526 62.4458 38.0457 61.45 39.1001C60.4542 40.1545 58.9 41.8001 58.9 41.8001V41.7001C58.9 41.7001 61.5468 41.2369 62.9 41.0001C64.2532 40.7633 65.55 40.5524 67 40C68.6461 39.3728 75.2956 36.6422 75.2956 36.6422L76.3115 37.5C76.3115 37.5 70.5 40 67.7 41.5001C66.4154 42.1883 65.8411 42.8104 64.65 43.6501C63.4589 44.4897 61.6 45.8001 61.6 45.8001L61.5 45.7001C61.5 45.8001 61.6 45.8001 61.6 45.9001V45.8001C61.6 45.8001 64.45 45.6197 65.55 45.5501C66.65 45.4805 68.0065 45.6984 69.5 45.3001C72.5 44.5 81.7867 42.1232 81.7867 42.1232L82.8252 43C82.8252 43 72 46 70 46.6001C68.5775 47.0269 67.9583 47.6971 66.65 48.4001C65.3417 49.103 63.3 50.2001 63.3 50.2001L71.1 51.1001L91.1153 50L92.2996 51C92.2996 51 73.2363 51.8055 71.5 52.5C69 53.5 65 54.8008 65 54.8008L37.5686 31.6737C37.5686 31.6737 37.9743 29.3048 38.2343 27.7868C38.4943 26.2689 38.9 25.44 38.9 23.9Z" fill="#F6B727"/>
<path d="M31.9 0L37.5686 31.6737L0 0.000774384L31.9 0Z" fill="white"/>
</svg>
