<svg width="1048" height="1048" viewBox="0 0 1048 1048" fill="none" xmlns="http://www.w3.org/2000/svg">
<g clip-path="url(#clip0_2422_244)">
<mask id="mask0_2422_244" style="mask-type:luminance" maskUnits="userSpaceOnUse" x="0" y="0" width="1048" height="1048">
<path d="M1048 0H0V1048H1048V0Z" fill="white"/>
</mask>
<g mask="url(#mask0_2422_244)">
<path d="M544.5 828C713.775 828 851 690.775 851 521.5C851 352.224 713.775 215 544.5 215C375.225 215 238 352.224 238 521.5C238 690.775 375.225 828 544.5 828Z" fill="#FAFAFA"/>
<path d="M223.837 759.493C218.164 755.337 214.213 749.244 212.734 742.371C211.255 735.496 212.351 728.317 215.813 722.197L217.635 719.369C221.951 713.46 223.85 706.126 222.939 698.866C222.03 691.604 218.383 684.965 212.744 680.304C207.103 675.642 199.895 673.31 192.593 673.785C185.291 674.259 178.446 677.502 173.455 682.855L171.31 685.446C166.811 691.589 160.057 695.694 152.532 696.856C145.007 698.02 137.328 696.146 131.186 691.648L84.859 657.725C66.4292 644.23 54.1155 623.966 50.6263 601.393C47.1371 578.817 52.7585 555.782 66.2537 537.352L235.866 305.723C249.362 287.293 269.625 274.979 292.199 271.49C314.773 268 337.809 273.623 356.238 287.117L402.565 321.039C408.237 325.195 412.188 331.288 413.667 338.162C415.146 345.036 414.051 352.215 410.589 358.335L408.767 361.163C404.45 367.073 402.552 374.406 403.462 381.668C404.372 388.928 408.019 395.567 413.658 400.229C419.299 404.89 426.507 407.223 433.809 406.749C441.111 406.275 447.955 403.03 452.946 397.678L455.092 395.087C459.591 388.943 466.345 384.839 473.87 383.676C481.394 382.513 489.074 384.386 495.216 388.884L680.521 524.575C698.95 538.07 711.264 558.334 714.754 580.908C718.242 603.482 712.621 626.518 699.126 644.947L529.513 876.578C516.018 895.007 495.755 907.321 473.181 910.811C450.607 914.299 427.57 908.678 409.141 895.182L223.837 759.493ZM330.161 517.103C336.305 521.602 343.983 523.475 351.509 522.312C359.034 521.15 365.788 517.044 370.287 510.902L387.247 487.738C391.746 481.596 393.619 473.916 392.457 466.392C391.294 458.867 387.19 452.113 381.046 447.614C374.903 443.116 367.224 441.242 359.699 442.406C352.175 443.568 345.42 447.673 340.922 453.816L323.96 476.979C319.461 483.122 317.588 490.801 318.751 498.326C319.915 505.85 324.019 512.605 330.161 517.103ZM245.356 632.918C251.03 637.072 258.03 638.999 265.031 638.333C272.031 637.668 278.543 634.456 283.333 629.307L285.48 626.716L302.442 603.554C306.758 597.645 308.655 590.311 307.746 583.05C306.837 575.79 303.19 569.151 297.549 564.489C291.909 559.828 284.702 557.494 277.4 557.969C270.098 558.443 263.252 561.688 258.262 567.039L256.115 569.632L239.154 592.794C234.656 598.938 232.783 606.616 233.945 614.14C235.108 621.665 239.212 628.419 245.356 632.918Z" fill="#59D2CA" stroke="#FAFAFA" stroke-width="36" stroke-linejoin="round"/>
<path d="M343.528 567.18C340.317 560.029 339.843 551.946 342.195 544.467C344.548 536.989 349.563 530.632 356.29 526.606L359.615 524.867C367.054 521.517 372.932 515.452 376.05 507.913C379.168 500.374 379.288 491.928 376.388 484.303C373.487 476.677 367.785 470.447 360.445 466.885C353.105 463.322 344.682 462.697 336.897 465.138L333.388 466.467C325.645 469.945 316.836 470.203 308.901 467.187C300.966 464.17 294.553 458.124 291.075 450.381L264.849 391.979C254.416 368.747 253.639 342.321 262.69 318.515C271.741 294.709 289.878 275.473 313.111 265.04L605.112 133.909C628.345 123.477 654.771 122.7 678.577 131.751C702.383 140.801 721.619 158.938 732.052 182.171L758.278 240.571C761.488 247.724 761.963 255.806 759.61 263.285C757.257 270.764 752.242 277.12 745.516 281.146L742.191 282.884C734.751 286.235 728.873 292.3 725.756 299.839C722.638 307.378 722.517 315.824 725.418 323.449C728.318 331.075 734.02 337.305 741.36 340.867C748.7 344.429 757.124 345.054 764.909 342.615L768.417 341.285C776.161 337.807 784.97 337.548 792.905 340.565C800.841 343.581 807.252 349.627 810.73 357.372L915.635 590.972C926.068 614.207 926.845 640.632 917.794 664.438C908.743 688.244 890.606 707.479 867.373 717.913L575.372 849.042C552.139 859.477 525.712 860.253 501.907 851.203C478.101 842.152 458.865 824.015 448.433 800.782L343.528 567.18ZM580.103 390.762C583.581 398.507 589.992 404.553 597.927 407.57C605.863 410.587 614.672 410.327 622.416 406.851L651.616 393.737C659.361 390.259 665.407 383.847 668.423 375.912C671.44 367.976 671.181 359.168 667.703 351.424C664.225 343.68 657.814 337.634 649.878 334.617C641.943 331.6 633.135 331.86 625.39 335.336L596.19 348.449C588.445 351.927 582.4 358.34 579.383 366.275C576.366 374.209 576.625 383.019 580.103 390.762ZM434.102 456.328C437.315 463.481 443.041 469.204 450.193 472.415C457.346 475.624 465.428 476.098 472.907 473.746L476.415 472.415L505.615 459.302C513.055 455.952 518.933 449.887 522.051 442.348C525.168 434.809 525.289 426.363 522.389 418.737C519.488 411.112 513.786 404.882 506.446 401.32C499.106 397.758 490.683 397.133 482.897 399.572L479.389 400.902L450.189 414.015C442.445 417.493 436.399 423.904 433.382 431.84C430.365 439.775 430.624 448.585 434.102 456.328Z" fill="#FB923C" stroke="#FAFAFA" stroke-width="36" stroke-linejoin="round"/>
<path d="M983.649 628.499C983.649 649.841 979.664 668.226 971.692 683.655C963.978 699.083 953.564 712.197 940.45 722.997C927.336 733.797 912.165 742.668 894.937 749.611C877.966 756.296 860.223 761.567 841.709 765.424C823.195 769.282 804.552 771.853 785.781 773.138C767.267 774.425 749.911 775.067 733.71 775.067C717.768 775.067 701.183 774.425 683.955 773.138C666.982 772.11 650.011 770.182 633.04 767.353C616.069 764.524 599.355 760.796 582.899 756.167C566.441 751.282 550.885 745.239 536.227 738.04L535.457 241.247C549.857 235.334 565.156 230.062 581.355 225.433C597.555 220.548 614.012 216.561 630.727 213.476C647.698 210.133 664.54 207.69 681.255 206.148C697.968 204.348 714.169 203.448 729.853 203.448C748.111 203.448 766.495 204.605 785.009 206.92C803.78 209.233 821.78 213.091 839.009 218.491C856.237 223.891 872.308 230.962 887.222 239.704C902.136 248.19 915.121 258.733 926.179 271.332C937.493 283.932 946.235 298.59 952.406 315.303C958.836 332.017 962.049 351.303 962.049 373.159C962.049 387.56 959.993 401.059 955.878 413.659C951.765 426.258 945.85 437.573 938.135 447.601C930.422 457.629 921.036 466.243 909.979 473.443C898.922 480.386 886.451 485.529 872.566 488.872C889.279 493.243 904.45 499.672 918.079 508.157C931.964 516.643 943.663 526.928 953.178 539.014C962.949 551.1 970.407 564.728 975.549 579.899C980.949 595.07 983.649 611.27 983.649 628.499ZM787.709 408.644C787.709 401.187 786.166 394.888 783.081 389.745C779.996 384.345 776.138 379.973 771.51 376.63C767.138 373.288 762.253 370.845 756.852 369.302C751.711 367.759 747.082 366.989 742.968 366.989C737.825 366.989 732.81 367.759 727.925 369.302C723.039 370.845 718.282 372.645 713.654 374.702L711.339 460.329C717.254 460.329 724.582 459.815 733.325 458.787C742.068 457.759 750.424 455.572 758.395 452.229C766.624 448.629 773.567 443.487 779.224 436.801C784.881 429.858 787.709 420.473 787.709 408.644ZM732.939 534.386C725.482 534.386 718.282 535.157 711.339 536.699L709.797 624.641C713.654 625.412 717.382 626.184 720.982 626.956C724.838 627.469 728.568 627.727 732.168 627.727C737.568 627.727 743.481 627.212 749.911 626.184C756.339 624.897 762.382 622.584 768.038 619.241C773.695 615.641 778.324 610.884 781.924 604.97C785.781 599.055 787.709 591.213 787.709 581.442C787.709 571.671 785.781 563.7 781.924 557.528C778.324 551.357 773.825 546.599 768.423 543.257C763.024 539.657 757.11 537.342 750.682 536.314C744.253 535.028 738.339 534.386 732.939 534.386Z" fill="#34373A"/>
<mask id="mask1_2422_244" style="mask-type:luminance" maskUnits="userSpaceOnUse" x="495" y="163" width="529" height="653">
<path d="M1023.3 163.21H495.365V815.59H1023.3V163.21Z" fill="white"/>
<path d="M983.649 628.499C983.649 649.841 979.664 668.226 971.692 683.655C963.978 699.083 953.564 712.197 940.45 722.997C927.336 733.797 912.165 742.668 894.937 749.611C877.966 756.296 860.223 761.567 841.709 765.424C823.195 769.282 804.552 771.853 785.781 773.138C767.267 774.425 749.911 775.067 733.71 775.067C717.768 775.067 701.183 774.425 683.955 773.138C666.982 772.11 650.011 770.182 633.04 767.353C616.069 764.524 599.355 760.796 582.899 756.167C566.441 751.282 550.885 745.239 536.227 738.04L535.457 241.247C549.857 235.334 565.156 230.062 581.355 225.433C597.555 220.548 614.012 216.561 630.727 213.476C647.698 210.133 664.54 207.69 681.255 206.148C697.968 204.348 714.169 203.448 729.853 203.448C748.111 203.448 766.495 204.605 785.009 206.92C803.78 209.233 821.78 213.091 839.009 218.491C856.237 223.891 872.308 230.962 887.222 239.704C902.136 248.19 915.121 258.733 926.179 271.332C937.493 283.932 946.235 298.59 952.406 315.303C958.836 332.017 962.049 351.303 962.049 373.159C962.049 387.56 959.993 401.059 955.878 413.659C951.765 426.258 945.85 437.573 938.135 447.601C930.422 457.629 921.036 466.243 909.979 473.443C898.922 480.386 886.451 485.529 872.566 488.872C889.279 493.243 904.45 499.672 918.079 508.157C931.964 516.643 943.663 526.928 953.178 539.014C962.949 551.1 970.407 564.728 975.549 579.899C980.949 595.07 983.649 611.27 983.649 628.499ZM787.709 408.644C787.709 401.187 786.166 394.888 783.081 389.745C779.996 384.345 776.138 379.973 771.51 376.63C767.138 373.288 762.253 370.845 756.852 369.302C751.711 367.759 747.082 366.989 742.968 366.989C737.825 366.989 732.81 367.759 727.925 369.302C723.039 370.845 718.282 372.645 713.654 374.702L711.339 460.329C717.254 460.329 724.582 459.815 733.325 458.787C742.068 457.759 750.424 455.572 758.395 452.229C766.624 448.629 773.567 443.487 779.224 436.801C784.881 429.858 787.709 420.473 787.709 408.644ZM732.939 534.386C725.482 534.386 718.282 535.157 711.339 536.699L709.797 624.641C713.654 625.412 717.382 626.184 720.982 626.956C724.838 627.469 728.568 627.727 732.168 627.727C737.568 627.727 743.481 627.212 749.911 626.184C756.339 624.897 762.382 622.584 768.038 619.241C773.695 615.641 778.324 610.884 781.924 604.97C785.781 599.055 787.709 591.213 787.709 581.442C787.709 571.671 785.781 563.7 781.924 557.528C778.324 551.357 773.825 546.599 768.423 543.257C763.024 539.657 757.11 537.342 750.682 536.314C744.253 535.028 738.339 534.386 732.939 534.386Z" fill="black"/>
</mask>
<g mask="url(#mask1_2422_244)">
<path d="M971.693 683.655L936.778 665.615C936.698 665.769 936.62 665.924 936.542 666.079L971.693 683.655ZM894.938 749.611L909.341 786.175C909.437 786.137 909.533 786.099 909.627 786.061L894.938 749.611ZM785.782 773.138L783.097 733.93C783.085 733.931 783.072 733.933 783.06 733.933L785.782 773.138ZM683.956 773.138L686.88 733.947C686.698 733.934 686.516 733.922 686.332 733.91L683.956 773.138ZM582.9 756.167L571.715 793.842C571.896 793.895 572.078 793.949 572.26 794L582.9 756.167ZM536.229 738.039L496.93 738.1C496.952 753.064 505.471 766.715 518.901 773.313L536.229 738.039ZM535.458 241.247L520.527 204.894C505.763 210.957 496.133 225.347 496.158 241.308L535.458 241.247ZM581.357 225.433L592.154 263.221C592.337 263.168 592.522 263.115 592.704 263.06L581.357 225.433ZM630.728 213.476L637.862 252.123C638.016 252.095 638.169 252.065 638.322 252.035L630.728 213.476ZM681.256 206.148L684.868 245.282C685.067 245.263 685.265 245.244 685.464 245.221L681.256 206.148ZM785.011 206.92L780.136 245.916C780.158 245.918 780.181 245.921 780.202 245.924L785.011 206.92ZM887.223 239.704L867.348 273.608C867.495 273.694 867.641 273.778 867.788 273.862L887.223 239.704ZM926.18 271.332L896.641 297.255C896.739 297.367 896.839 297.479 896.938 297.59L926.18 271.332ZM952.408 315.303L915.54 328.916C915.602 329.081 915.665 329.246 915.728 329.411L952.408 315.303ZM909.981 473.443L930.879 506.726C931.061 506.611 931.245 506.494 931.425 506.376L909.981 473.443ZM872.567 488.872L863.368 450.664C845.851 454.88 833.445 470.469 833.268 488.487C833.091 506.505 845.191 522.334 862.623 526.892L872.567 488.872ZM918.08 508.157L897.308 541.518C897.401 541.576 897.494 541.634 897.587 541.691L918.08 508.157ZM953.179 539.014L922.3 563.323C922.405 563.457 922.512 563.591 922.618 563.723L953.179 539.014ZM975.55 579.899L938.33 592.515C938.395 592.703 938.46 592.89 938.526 593.078L975.55 579.899ZM783.082 389.745L748.961 409.243C749.098 409.485 749.24 409.726 749.383 409.964L783.082 389.745ZM771.511 376.63L747.638 407.849C747.923 408.066 748.21 408.281 748.501 408.491L771.511 376.63ZM756.853 369.302L745.561 406.945C745.726 406.995 745.891 407.043 746.058 407.09L756.853 369.302ZM713.655 374.702L697.694 338.79C683.852 344.941 674.778 358.5 674.369 373.641L713.655 374.702ZM711.34 460.329L672.055 459.268C671.769 469.871 675.78 480.14 683.178 487.74C690.577 495.341 700.733 499.629 711.34 499.629V460.329ZM758.397 452.229L773.595 488.471C773.78 488.394 773.965 488.316 774.149 488.234L758.397 452.229ZM779.226 436.801L809.226 462.186C809.383 462.002 809.539 461.814 809.692 461.626L779.226 436.801ZM711.34 536.699L702.815 498.336C685.085 502.275 672.365 517.851 672.047 536.01L711.34 536.699ZM709.798 624.641L670.504 623.952C670.171 642.941 683.466 659.453 702.09 663.178L709.798 624.641ZM720.983 626.955L712.748 665.383C713.754 665.598 714.77 665.775 715.789 665.911L720.983 626.955ZM749.912 626.184L756.12 664.99C756.622 664.91 757.121 664.82 757.618 664.72L749.912 626.184ZM768.04 619.241L788.033 653.075C788.405 652.855 788.774 652.629 789.138 652.397L768.04 619.241ZM781.926 604.97L749.007 583.501C748.784 583.843 748.566 584.188 748.355 584.536L781.926 604.97ZM781.926 557.528L747.978 577.33C748.18 577.676 748.387 578.018 748.599 578.357L781.926 557.528ZM768.425 543.257L746.625 575.956C746.993 576.201 747.364 576.439 747.74 576.672L768.425 543.257ZM750.683 536.314L742.975 574.85C743.473 574.95 743.972 575.04 744.474 575.12L750.683 536.314ZM944.35 628.499C944.35 644.978 941.282 656.898 936.778 665.615L1006.61 701.693C1018.05 679.554 1022.95 654.703 1022.95 628.499H944.35ZM936.542 666.079C931.249 676.666 924.27 685.41 915.468 692.66L965.434 753.334C982.86 738.983 996.711 721.498 1006.84 701.23L936.542 666.079ZM915.468 692.66C905.727 700.681 894.098 707.577 880.248 713.159L909.627 786.061C930.233 777.757 948.947 766.912 965.434 753.334L915.468 692.66ZM880.533 713.045C865.708 718.886 850.108 723.531 833.694 726.95L849.726 803.898C870.339 799.604 890.225 793.707 909.341 786.175L880.533 713.045ZM833.694 726.95C816.929 730.443 800.068 732.768 783.097 733.93L788.468 812.347C809.04 810.937 829.463 808.119 849.726 803.898L833.694 726.95ZM783.06 733.933C765.324 735.164 748.883 735.767 733.711 735.767V814.367C750.939 814.367 769.212 813.684 788.504 812.344L783.06 733.933ZM733.711 735.767C718.822 735.767 703.216 735.167 686.88 733.947L681.031 812.33C699.152 813.681 716.716 814.367 733.711 814.367V735.767ZM686.332 733.91C670.746 732.966 655.137 731.193 639.502 728.588L626.581 806.118C644.888 809.17 663.223 811.254 681.578 812.366L686.332 733.91ZM639.502 728.588C623.932 725.993 608.613 722.575 593.54 718.336L572.26 794C590.101 799.017 608.21 803.056 626.581 806.118L639.502 728.588ZM594.085 718.493C579.631 714.201 566.138 708.946 553.557 702.765L518.901 773.313C535.634 781.531 553.255 788.362 571.715 793.842L594.085 718.493ZM575.529 737.978L574.758 241.187L496.158 241.308L496.93 738.1L575.529 737.978ZM550.388 277.601C563.332 272.283 577.245 267.481 592.154 263.221L570.561 187.646C553.07 192.642 536.382 198.382 520.527 204.894L550.388 277.601ZM592.704 263.06C607.513 258.593 622.564 254.947 637.862 252.123L623.592 174.83C605.463 178.176 587.6 182.503 570.009 187.807L592.704 263.06ZM638.322 252.035C654.017 248.944 669.53 246.697 684.868 245.282L677.643 167.014C659.552 168.683 641.381 171.323 623.133 174.918L638.322 252.035ZM685.464 245.221C700.879 243.562 715.671 242.748 729.854 242.748V164.148C712.667 164.148 695.061 165.133 677.047 167.073L685.464 245.221ZM729.854 242.748C746.447 242.748 763.204 243.799 780.136 245.916L789.885 167.922C769.79 165.411 749.777 164.148 729.854 164.148V242.748ZM780.202 245.924C796.729 247.962 812.397 251.334 827.255 255.991L850.763 180.99C831.166 174.847 810.835 170.506 789.82 167.914L780.202 245.924ZM827.255 255.991C841.776 260.542 855.107 266.433 867.348 273.608L907.099 205.801C889.511 195.49 870.7 187.238 850.763 180.99L827.255 255.991ZM867.788 273.862C878.991 280.236 888.539 288.022 896.641 297.255L955.719 245.41C941.708 229.444 925.284 216.143 906.658 205.547L867.788 273.862ZM896.938 297.59C904.764 306.304 910.999 316.614 915.54 328.916L989.275 301.69C981.475 280.564 970.225 261.561 955.421 245.075L896.938 297.59ZM915.728 329.411C920.089 340.752 922.751 355.095 922.751 373.159H1001.35C1001.35 347.51 997.584 323.283 989.089 301.195L915.728 329.411ZM922.751 373.159C922.751 383.772 921.243 393.124 918.521 401.46L993.238 425.857C998.745 408.994 1001.35 391.345 1001.35 373.159H922.751ZM918.521 401.46C915.726 410.018 911.85 417.317 906.987 423.64L969.287 471.562C979.852 457.828 987.804 442.498 993.238 425.857L918.521 401.46ZM906.987 423.64C902.093 430.001 896.034 435.626 888.535 440.51L931.425 506.376C946.04 496.861 958.753 485.257 969.287 471.562L906.987 423.64ZM889.082 440.161C881.955 444.636 873.5 448.224 863.368 450.664L881.765 527.08C899.404 522.834 915.891 516.136 930.879 506.726L889.082 440.161ZM862.623 526.892C875.804 530.34 887.28 535.275 897.308 541.518L938.852 474.795C921.624 464.069 902.757 456.146 882.51 450.851L862.623 526.892ZM897.587 541.691C907.724 547.885 915.838 555.114 922.3 563.323L984.059 514.704C971.493 498.743 956.208 485.399 938.573 474.623L897.587 541.691ZM922.618 563.723C929.384 572.091 934.631 581.599 938.33 592.515L1012.77 567.282C1006.19 547.856 996.517 530.107 983.74 514.305L922.618 563.723ZM938.526 593.078C942.318 603.73 944.35 615.446 944.35 628.499H1022.95C1022.95 607.095 1019.58 586.41 1012.57 566.72L938.526 593.078ZM827.011 408.644C827.011 395.786 824.326 382.099 816.782 369.525L749.383 409.964C748.739 408.893 748.472 408.041 748.382 407.675C748.302 407.35 748.411 407.606 748.411 408.644H827.011ZM817.204 370.247C811.589 360.42 804.086 351.679 794.521 344.771L748.501 408.491C748.403 408.419 748.366 408.373 748.407 408.419C748.454 408.471 748.655 408.709 748.961 409.243L817.204 370.247ZM795.383 345.413C787.023 339.019 777.682 334.381 767.65 331.514L746.058 407.09C746.825 407.309 747.256 407.558 747.638 407.849L795.383 345.413ZM768.147 331.659C760.39 329.333 751.868 327.689 742.969 327.689V406.289C742.585 406.289 742.594 406.253 743.064 406.332C743.533 406.41 744.355 406.582 745.561 406.945L768.147 331.659ZM742.969 327.689C733.826 327.689 724.82 329.071 716.091 331.827L739.761 406.779C740.803 406.448 741.825 406.289 742.969 406.289V327.689ZM716.091 331.827C709.818 333.808 703.683 336.128 697.694 338.79L729.616 410.615C732.884 409.163 736.263 407.883 739.761 406.779L716.091 331.827ZM674.369 373.641L672.055 459.268L750.626 461.391L752.94 375.764L674.369 373.641ZM711.34 499.629C719.334 499.629 728.31 498.947 737.917 497.817L728.734 419.755C720.857 420.683 715.176 421.029 711.34 421.029V499.629ZM737.917 497.817C750.241 496.368 762.173 493.261 773.595 488.471L743.198 415.988C738.677 417.883 733.896 419.149 728.734 419.755L737.917 497.817ZM774.149 488.234C787.73 482.292 799.592 473.573 809.226 462.186L749.224 411.416C747.545 413.401 745.521 414.966 742.645 416.225L774.149 488.234ZM809.692 461.626C822.669 445.7 827.011 426.597 827.011 408.644H748.411C748.411 411.483 748.066 412.867 747.961 413.215C747.889 413.456 748.046 412.85 748.759 411.977L809.692 461.626ZM732.941 495.086C722.754 495.086 712.689 496.141 702.815 498.336L719.866 575.064C723.877 574.172 728.212 573.686 732.941 573.686V495.086ZM672.047 536.01L670.504 623.952L749.092 625.33L750.635 537.389L672.047 536.01ZM702.09 663.178C705.783 663.916 709.336 664.652 712.748 665.383L729.218 588.528C725.43 587.716 721.527 586.909 717.505 586.104L702.09 663.178ZM715.789 665.911C721.231 666.637 726.699 667.027 732.169 667.027V588.427C730.439 588.427 728.45 588.303 726.177 588L715.789 665.911ZM732.169 667.027C740.02 667.027 748.041 666.283 756.12 664.99L743.702 587.378C738.925 588.141 735.118 588.427 732.169 588.427V667.027ZM757.618 664.72C768.388 662.566 778.582 658.66 788.033 653.075L748.046 585.406C746.182 586.508 744.292 587.23 742.204 587.648L757.618 664.72ZM789.138 652.397C800.04 645.46 808.872 636.284 815.496 625.403L748.355 584.536C747.778 585.483 747.353 585.823 746.941 586.085L789.138 652.397ZM814.843 626.438C824.178 612.125 827.011 596.012 827.011 581.442H748.411C748.411 583.801 748.172 584.979 748.101 585.267C748.044 585.503 748.2 584.739 749.007 583.501L814.843 626.438ZM827.011 581.442C827.011 566.757 824.135 550.913 815.252 536.699L748.599 578.357C748.028 577.444 747.969 576.976 748.066 577.376C748.175 577.825 748.411 579.096 748.411 581.442H827.011ZM815.872 537.726C809.442 526.704 800.631 516.973 789.111 509.841L747.74 576.672C747.615 576.595 747.507 576.515 747.42 576.446C747.335 576.375 747.296 576.333 747.3 576.338C747.304 576.342 747.559 576.611 747.978 577.33L815.872 537.726ZM790.226 510.557C780.112 503.815 768.878 499.426 756.891 497.508L744.474 575.12C745.345 575.26 745.939 575.499 746.625 575.956L790.226 510.557ZM758.39 497.776C749.942 496.088 741.407 495.086 732.941 495.086V573.686C735.272 573.686 738.566 573.969 742.975 574.85L758.39 497.776Z" fill="#FAFAFA"/>
</g>
</g>
</g>
<defs>
<clipPath id="clip0_2422_244">
<rect width="1048" height="1048" fill="white"/>
</clipPath>
</defs>
</svg>
