<svg width="800" height="800" viewBox="0 0 800 800" fill="none" xmlns="http://www.w3.org/2000/svg">
<g clip-path="url(#clip0_2169_277)">
<circle cx="400" cy="400" r="400" fill="#FAFAFA"/>
<path d="M172.394 587.4C168.064 584.228 165.048 579.577 163.919 574.329C162.79 569.081 163.626 563.602 166.269 558.93L167.66 556.77C170.955 552.26 172.404 546.662 171.709 541.119C171.015 535.577 168.231 530.508 163.926 526.95C159.62 523.391 154.118 521.611 148.544 521.973C142.97 522.335 137.745 524.812 133.935 528.897L132.297 530.875C128.863 535.565 123.707 538.698 117.963 539.586C112.219 540.474 106.357 539.043 101.668 535.61L66.3042 509.714C52.2357 499.413 42.8359 483.944 40.1724 466.712C37.5089 449.48 41.8 431.895 52.1017 417.827L181.577 241.01C191.879 226.942 207.347 217.542 224.579 214.878C241.811 212.215 259.396 216.506 273.464 226.808L308.828 252.703C313.158 255.875 316.174 260.525 317.303 265.773C318.432 271.021 317.596 276.5 314.953 281.173L313.562 283.332C310.267 287.842 308.818 293.441 309.513 298.983C310.207 304.526 312.991 309.594 317.296 313.152C321.602 316.711 327.104 318.491 332.678 318.129C338.252 317.767 343.477 315.291 347.287 311.205L348.925 309.227C352.359 304.538 357.515 301.404 363.259 300.516C369.003 299.629 374.865 301.059 379.554 304.493L521.008 408.073C535.076 418.375 544.476 433.843 547.14 451.075C549.803 468.308 545.512 485.892 535.21 499.961L405.735 676.777C395.433 690.846 379.965 700.246 362.733 702.909C345.501 705.572 327.916 701.281 313.848 690.98L172.394 587.4ZM253.558 402.37C258.248 405.803 264.109 407.234 269.854 406.346C275.598 405.458 280.754 402.325 284.188 397.635L297.135 379.954C300.569 375.264 301.999 369.403 301.112 363.659C300.224 357.915 297.091 352.758 292.401 349.324C287.712 345.891 281.85 344.46 276.106 345.348C270.362 346.236 265.206 349.369 261.772 354.059L248.824 371.74C245.39 376.43 243.96 382.291 244.848 388.035C245.736 393.779 248.869 398.936 253.558 402.37ZM188.821 490.778C193.152 493.949 198.496 495.419 203.84 494.911C209.184 494.403 214.155 491.952 217.811 488.022L219.45 486.044L232.398 468.362C235.693 463.852 237.141 458.253 236.447 452.711C235.753 447.168 232.969 442.1 228.663 438.542C224.358 434.983 218.856 433.203 213.282 433.565C207.708 433.927 202.482 436.403 198.673 440.489L197.034 442.467L184.087 460.149C180.653 464.838 179.223 470.7 180.11 476.444C180.998 482.188 184.131 487.344 188.821 490.778Z" fill="#59D2CA" stroke="#FAFAFA" stroke-width="25" stroke-linejoin="round"/>
<path d="M262.234 432.962C259.783 427.503 259.421 421.333 261.217 415.624C263.013 409.915 266.841 405.063 271.976 401.989L274.514 400.662C280.193 398.105 284.68 393.475 287.06 387.72C289.44 381.965 289.532 375.518 287.318 369.697C285.104 363.876 280.751 359.12 275.148 356.401C269.545 353.681 263.115 353.204 257.172 355.067L254.494 356.082C248.583 358.737 241.859 358.934 235.801 356.631C229.744 354.328 224.849 349.713 222.194 343.802L202.174 299.221C194.21 281.486 193.617 261.314 200.526 243.141C207.435 224.969 221.28 210.285 239.015 202.321L461.917 102.221C479.652 94.257 499.824 93.664 517.997 100.573C536.169 107.482 550.853 121.327 558.817 139.062L578.837 183.642C581.288 189.102 581.65 195.272 579.854 200.981C578.058 206.69 574.23 211.542 569.095 214.615L566.557 215.942C560.878 218.5 556.391 223.13 554.011 228.885C551.631 234.64 551.539 241.087 553.753 246.908C555.967 252.729 560.32 257.485 565.923 260.204C571.526 262.923 577.956 263.4 583.899 261.538L586.577 260.523C592.488 257.868 599.213 257.67 605.27 259.973C611.328 262.276 616.222 266.891 618.877 272.803L698.957 451.124C706.921 468.86 707.514 489.032 700.605 507.205C693.696 525.377 679.851 540.06 662.116 548.025L439.214 648.124C421.479 656.089 401.306 656.682 383.134 649.773C364.962 642.864 350.278 629.019 342.314 611.284L262.234 432.962ZM442.826 298.292C445.481 304.204 450.375 308.819 456.432 311.122C462.49 313.425 469.214 313.227 475.126 310.573L497.416 300.563C503.328 297.908 507.943 293.013 510.246 286.956C512.549 280.898 512.351 274.174 509.696 268.263C507.041 262.351 502.147 257.736 496.089 255.433C490.032 253.13 483.308 253.328 477.396 255.982L455.106 265.992C449.194 268.647 444.579 273.542 442.276 279.599C439.973 285.656 440.171 292.381 442.826 298.292ZM331.375 348.342C333.827 353.802 338.198 358.171 343.658 360.622C349.118 363.072 355.288 363.434 360.997 361.638L363.675 360.622L385.965 350.612C391.644 348.055 396.131 343.425 398.511 337.67C400.891 331.915 400.983 325.468 398.769 319.647C396.555 313.826 392.202 309.07 386.599 306.351C380.996 303.632 374.566 303.155 368.623 305.017L365.945 306.032L343.655 316.042C337.743 318.697 333.128 323.591 330.825 329.649C328.522 335.706 328.72 342.431 331.375 348.342Z" fill="#FB923C" stroke="#FAFAFA" stroke-width="30" stroke-linejoin="round"/>
<mask id="path-4-outside-1_2169_277" maskUnits="userSpaceOnUse" x="378.141" y="124.588" width="403" height="498" fill="black">
<rect fill="white" x="378.141" y="124.588" width="403" height="498"/>
<path d="M750.877 479.77C750.877 496.062 747.835 510.096 741.75 521.874C735.861 533.651 727.912 543.662 717.901 551.906C707.89 560.15 696.309 566.922 683.158 572.222C670.203 577.325 656.659 581.349 642.526 584.293C628.393 587.238 614.162 589.201 599.833 590.182C585.7 591.164 572.451 591.654 560.084 591.654C547.915 591.654 535.254 591.164 522.103 590.182C509.147 589.397 496.192 587.925 483.237 585.766C470.282 583.606 457.523 580.76 444.961 577.227C432.398 573.498 420.523 568.885 409.334 563.389L408.746 184.158C419.738 179.644 431.417 175.62 443.783 172.086C456.149 168.357 468.712 165.314 481.471 162.959C494.426 160.407 507.283 158.542 520.042 157.365C532.8 155.991 545.167 155.304 557.14 155.304C571.077 155.304 585.111 156.187 599.244 157.954C613.573 159.72 627.313 162.665 640.465 166.787C653.616 170.909 665.884 176.307 677.269 182.98C688.654 189.458 698.566 197.506 707.007 207.124C715.644 216.742 722.317 227.931 727.028 240.689C731.936 253.448 734.389 268.17 734.389 284.854C734.389 295.847 732.819 306.152 729.678 315.77C726.538 325.388 722.023 334.025 716.134 341.68C710.246 349.335 703.081 355.911 694.641 361.407C686.2 366.707 676.68 370.633 666.081 373.185C678.839 376.521 690.42 381.429 700.824 387.906C711.423 394.384 720.354 402.235 727.617 411.461C735.076 420.687 740.769 431.09 744.694 442.671C748.816 454.252 750.877 466.618 750.877 479.77ZM601.305 311.942C601.305 306.25 600.127 301.441 597.772 297.515C595.417 293.393 592.472 290.056 588.939 287.504C585.602 284.953 581.873 283.088 577.75 281.91C573.825 280.732 570.292 280.144 567.151 280.144C563.225 280.144 559.397 280.732 555.668 281.91C551.938 283.088 548.307 284.462 544.774 286.032L543.007 351.396C547.522 351.396 553.116 351.004 559.79 350.219C566.464 349.434 572.843 347.765 578.928 345.213C585.209 342.465 590.509 338.54 594.828 333.436C599.146 328.136 601.305 320.972 601.305 311.942ZM559.496 407.928C553.803 407.928 548.307 408.517 543.007 409.694L541.83 476.825C544.774 477.414 547.62 478.003 550.368 478.592C553.312 478.984 556.159 479.181 558.907 479.181C563.029 479.181 567.543 478.788 572.451 478.003C577.358 477.021 581.971 475.255 586.289 472.703C590.607 469.955 594.141 466.324 596.889 461.809C599.833 457.294 601.305 451.308 601.305 443.849C601.305 436.39 599.833 430.305 596.889 425.594C594.141 420.883 590.706 417.251 586.583 414.7C582.461 411.952 577.947 410.185 573.04 409.4C568.132 408.418 563.618 407.928 559.496 407.928Z"/>
</mask>
<path d="M750.877 479.77C750.877 496.062 747.835 510.096 741.75 521.874C735.861 533.651 727.912 543.662 717.901 551.906C707.89 560.15 696.309 566.922 683.158 572.222C670.203 577.325 656.659 581.349 642.526 584.293C628.393 587.238 614.162 589.201 599.833 590.182C585.7 591.164 572.451 591.654 560.084 591.654C547.915 591.654 535.254 591.164 522.103 590.182C509.147 589.397 496.192 587.925 483.237 585.766C470.282 583.606 457.523 580.76 444.961 577.227C432.398 573.498 420.523 568.885 409.334 563.389L408.746 184.158C419.738 179.644 431.417 175.62 443.783 172.086C456.149 168.357 468.712 165.314 481.471 162.959C494.426 160.407 507.283 158.542 520.042 157.365C532.8 155.991 545.167 155.304 557.14 155.304C571.077 155.304 585.111 156.187 599.244 157.954C613.573 159.72 627.313 162.665 640.465 166.787C653.616 170.909 665.884 176.307 677.269 182.98C688.654 189.458 698.566 197.506 707.007 207.124C715.644 216.742 722.317 227.931 727.028 240.689C731.936 253.448 734.389 268.17 734.389 284.854C734.389 295.847 732.819 306.152 729.678 315.77C726.538 325.388 722.023 334.025 716.134 341.68C710.246 349.335 703.081 355.911 694.641 361.407C686.2 366.707 676.68 370.633 666.081 373.185C678.839 376.521 690.42 381.429 700.824 387.906C711.423 394.384 720.354 402.235 727.617 411.461C735.076 420.687 740.769 431.09 744.694 442.671C748.816 454.252 750.877 466.618 750.877 479.77ZM601.305 311.942C601.305 306.25 600.127 301.441 597.772 297.515C595.417 293.393 592.472 290.056 588.939 287.504C585.602 284.953 581.873 283.088 577.75 281.91C573.825 280.732 570.292 280.144 567.151 280.144C563.225 280.144 559.397 280.732 555.668 281.91C551.938 283.088 548.307 284.462 544.774 286.032L543.007 351.396C547.522 351.396 553.116 351.004 559.79 350.219C566.464 349.434 572.843 347.765 578.928 345.213C585.209 342.465 590.509 338.54 594.828 333.436C599.146 328.136 601.305 320.972 601.305 311.942ZM559.496 407.928C553.803 407.928 548.307 408.517 543.007 409.694L541.83 476.825C544.774 477.414 547.62 478.003 550.368 478.592C553.312 478.984 556.159 479.181 558.907 479.181C563.029 479.181 567.543 478.788 572.451 478.003C577.358 477.021 581.971 475.255 586.289 472.703C590.607 469.955 594.141 466.324 596.889 461.809C599.833 457.294 601.305 451.308 601.305 443.849C601.305 436.39 599.833 430.305 596.889 425.594C594.141 420.883 590.706 417.251 586.583 414.7C582.461 411.952 577.947 410.185 573.04 409.4C568.132 408.418 563.618 407.928 559.496 407.928Z" fill="#34373A"/>
<path d="M741.75 521.874L715.097 508.103C715.036 508.221 714.976 508.339 714.917 508.457L741.75 521.874ZM683.158 572.222L694.153 600.134C694.226 600.105 694.299 600.076 694.371 600.047L683.158 572.222ZM599.833 590.182L597.783 560.252C597.774 560.253 597.764 560.254 597.755 560.254L599.833 590.182ZM522.103 590.182L524.335 560.265C524.196 560.255 524.057 560.246 523.917 560.237L522.103 590.182ZM444.961 577.227L436.423 605.986C436.561 606.027 436.7 606.068 436.839 606.107L444.961 577.227ZM409.334 563.389L379.335 563.435C379.352 574.858 385.855 585.279 396.107 590.315L409.334 563.389ZM408.746 184.158L397.348 156.408C386.078 161.036 378.727 172.021 378.746 184.205L408.746 184.158ZM443.783 172.086L452.025 200.932C452.165 200.892 452.306 200.851 452.445 200.809L443.783 172.086ZM481.471 162.959L486.917 192.46C487.034 192.439 487.151 192.416 487.268 192.393L481.471 162.959ZM520.042 157.365L522.799 187.238C522.951 187.224 523.102 187.209 523.254 187.192L520.042 157.365ZM599.244 157.954L595.523 187.722C595.54 187.724 595.557 187.726 595.573 187.728L599.244 157.954ZM677.269 182.98L662.097 208.861C662.209 208.927 662.321 208.991 662.433 209.055L677.269 182.98ZM707.007 207.124L684.458 226.912C684.533 226.998 684.609 227.083 684.685 227.168L707.007 207.124ZM727.028 240.689L698.885 251.081C698.932 251.207 698.98 251.333 699.028 251.459L727.028 240.689ZM694.641 361.407L710.594 386.814C710.733 386.726 710.872 386.637 711.011 386.547L694.641 361.407ZM666.081 373.185L659.059 344.018C645.687 347.237 636.217 359.137 636.082 372.891C635.947 386.645 645.183 398.728 658.49 402.208L666.081 373.185ZM700.824 387.906L684.967 413.373C685.038 413.417 685.109 413.461 685.18 413.505L700.824 387.906ZM727.617 411.461L704.045 430.018C704.125 430.12 704.207 430.221 704.288 430.323L727.617 411.461ZM744.694 442.671L716.282 452.302C716.331 452.445 716.381 452.588 716.431 452.731L744.694 442.671ZM597.772 297.515L571.725 312.399C571.83 312.584 571.938 312.768 572.047 312.95L597.772 297.515ZM588.939 287.504L570.715 311.335C570.933 311.501 571.152 311.665 571.374 311.825L588.939 287.504ZM577.75 281.91L569.13 310.645C569.256 310.683 569.382 310.72 569.509 310.756L577.75 281.91ZM544.774 286.032L532.59 258.618C522.024 263.314 515.097 273.664 514.785 285.222L544.774 286.032ZM543.007 351.396L513.018 350.586C512.8 358.68 515.862 366.519 521.509 372.321C527.157 378.123 534.91 381.396 543.007 381.396V351.396ZM578.928 345.213L590.53 372.879C590.671 372.82 590.812 372.76 590.953 372.698L578.928 345.213ZM594.828 333.436L617.729 352.814C617.849 352.673 617.968 352.53 618.085 352.386L594.828 333.436ZM543.007 409.694L536.499 380.409C522.965 383.416 513.255 395.306 513.012 409.168L543.007 409.694ZM541.83 476.825L511.834 476.299C511.58 490.795 521.729 503.399 535.946 506.243L541.83 476.825ZM550.368 478.592L544.082 507.926C544.85 508.09 545.625 508.225 546.403 508.329L550.368 478.592ZM572.451 478.003L577.19 507.626C577.573 507.565 577.954 507.496 578.334 507.42L572.451 478.003ZM586.289 472.703L601.551 498.531C601.835 498.363 602.117 498.19 602.395 498.013L586.289 472.703ZM596.889 461.809L571.76 445.421C571.59 445.682 571.424 445.945 571.263 446.211L596.889 461.809ZM596.889 425.594L570.975 440.71C571.129 440.974 571.287 441.235 571.449 441.494L596.889 425.594ZM586.583 414.7L569.942 439.661C570.223 439.848 570.506 440.03 570.793 440.208L586.583 414.7ZM573.04 409.4L567.156 438.817C567.536 438.893 567.917 438.962 568.3 439.023L573.04 409.4ZM720.877 479.77C720.877 492.35 718.535 501.449 715.097 508.103L768.403 535.644C777.135 518.744 780.877 499.773 780.877 479.77H720.877ZM714.917 508.457C710.876 516.539 705.549 523.214 698.83 528.748L736.972 575.064C750.274 564.109 760.847 550.762 768.583 535.29L714.917 508.457ZM698.83 528.748C691.394 534.871 682.517 540.135 671.944 544.396L694.371 600.047C710.101 593.708 724.386 585.429 736.972 575.064L698.83 528.748ZM672.162 544.309C660.845 548.768 648.937 552.314 636.407 554.924L648.645 613.663C664.38 610.385 679.56 605.883 694.153 600.134L672.162 544.309ZM636.407 554.924C623.609 557.59 610.738 559.365 597.783 560.252L601.883 620.112C617.587 619.036 633.177 616.885 648.645 613.663L636.407 554.924ZM597.755 560.254C584.216 561.194 571.666 561.654 560.084 561.654V621.654C573.235 621.654 587.184 621.133 601.911 620.11L597.755 560.254ZM560.084 561.654C548.718 561.654 536.805 561.196 524.335 560.265L519.87 620.099C533.703 621.131 547.111 621.654 560.084 621.654V561.654ZM523.917 560.237C512.019 559.516 500.104 558.163 488.169 556.174L478.305 615.357C492.28 617.687 506.276 619.278 520.288 620.127L523.917 560.237ZM488.169 556.174C476.283 554.193 464.589 551.584 453.083 548.348L436.839 606.107C450.458 609.937 464.282 613.02 478.305 615.357L488.169 556.174ZM453.499 548.468C442.466 545.192 432.166 541.18 422.562 536.462L396.107 590.315C408.88 596.589 422.331 601.803 436.423 605.986L453.499 548.468ZM439.334 563.342L438.746 184.112L378.746 184.205L379.335 563.435L439.334 563.342ZM420.143 211.909C430.024 207.85 440.644 204.184 452.025 200.932L435.542 143.241C422.19 147.055 409.451 151.437 397.348 156.408L420.143 211.909ZM452.445 200.809C463.75 197.399 475.239 194.616 486.917 192.46L476.024 133.458C462.185 136.012 448.549 139.315 435.121 143.364L452.445 200.809ZM487.268 192.393C499.249 190.034 511.091 188.318 522.799 187.238L517.284 127.492C503.474 128.766 489.603 130.781 475.673 133.525L487.268 192.393ZM523.254 187.192C535.021 185.925 546.313 185.304 557.14 185.304V125.304C544.02 125.304 530.58 126.056 516.829 127.537L523.254 187.192ZM557.14 185.304C569.806 185.304 582.598 186.106 595.523 187.722L602.965 128.185C587.625 126.268 572.348 125.304 557.14 125.304V185.304ZM595.573 187.728C608.189 189.284 620.15 191.858 631.492 195.413L649.437 138.16C634.477 133.471 618.957 130.157 602.915 128.179L595.573 187.728ZM631.492 195.413C642.576 198.887 652.753 203.384 662.097 208.861L692.441 157.1C679.015 149.229 664.656 142.93 649.437 138.16L631.492 195.413ZM662.433 209.055C670.985 213.921 678.273 219.864 684.458 226.912L729.556 187.336C718.86 175.148 706.323 164.995 692.105 156.906L662.433 209.055ZM684.685 227.168C690.659 233.82 695.418 241.69 698.885 251.081L755.171 230.298C749.217 214.171 740.629 199.665 729.328 187.08L684.685 227.168ZM699.028 251.459C702.357 260.116 704.389 271.065 704.389 284.854H764.389C764.389 265.275 761.514 246.781 755.029 229.92L699.028 251.459ZM704.389 284.854C704.389 292.956 703.238 300.095 701.16 306.458L758.196 325.082C762.4 312.209 764.389 298.737 764.389 284.854H704.389ZM701.16 306.458C699.027 312.991 696.068 318.563 692.356 323.389L739.913 359.971C747.978 349.487 754.048 337.785 758.196 325.082L701.16 306.458ZM692.356 323.389C688.62 328.245 683.995 332.539 678.27 336.267L711.011 386.547C722.167 379.283 731.872 370.425 739.913 359.971L692.356 323.389ZM678.688 336.001C673.247 339.417 666.793 342.156 659.059 344.018L673.102 402.351C686.567 399.11 699.153 393.997 710.594 386.814L678.688 336.001ZM658.49 402.208C668.552 404.84 677.312 408.607 684.967 413.373L716.68 362.439C703.529 354.251 689.127 348.203 673.671 344.161L658.49 402.208ZM685.18 413.505C692.918 418.233 699.112 423.751 704.045 430.018L751.189 392.904C741.597 380.72 729.929 370.534 716.467 362.308L685.18 413.505ZM704.288 430.323C709.453 436.711 713.458 443.969 716.282 452.302L773.106 433.04C768.08 418.211 760.699 404.662 750.946 392.599L704.288 430.323ZM716.431 452.731C719.326 460.863 720.877 469.806 720.877 479.77H780.877C780.877 463.431 778.307 447.641 772.957 432.611L716.431 452.731ZM631.305 311.942C631.305 302.127 629.256 291.679 623.497 282.08L572.047 312.95C571.556 312.132 571.352 311.482 571.283 311.202C571.222 310.954 571.305 311.15 571.305 311.942H631.305ZM623.819 282.631C619.533 275.13 613.805 268.457 606.504 263.184L571.374 311.825C571.299 311.77 571.271 311.735 571.302 311.77C571.338 311.81 571.492 311.992 571.725 312.399L623.819 282.631ZM607.162 263.674C600.78 258.793 593.65 255.253 585.992 253.064L569.509 310.756C570.095 310.923 570.424 311.113 570.715 311.335L607.162 263.674ZM586.371 253.175C580.45 251.399 573.944 250.144 567.151 250.144V310.144C566.858 310.144 566.865 310.117 567.224 310.177C567.582 310.237 568.209 310.368 569.13 310.645L586.371 253.175ZM567.151 250.144C560.172 250.144 553.297 251.199 546.634 253.303L564.702 310.518C565.498 310.266 566.278 310.144 567.151 310.144V250.144ZM546.634 253.303C541.845 254.815 537.162 256.586 532.59 258.618L556.958 313.447C559.453 312.338 562.032 311.361 564.702 310.518L546.634 253.303ZM514.785 285.222L513.018 350.586L572.996 352.207L574.763 286.843L514.785 285.222ZM543.007 381.396C549.109 381.396 555.961 380.876 563.295 380.013L556.285 320.424C550.272 321.132 545.935 321.396 543.007 321.396V381.396ZM563.295 380.013C572.702 378.907 581.811 376.535 590.53 372.879L567.326 317.548C563.875 318.995 560.225 319.961 556.285 320.424L563.295 380.013ZM590.953 372.698C601.32 368.162 610.375 361.506 617.729 352.814L571.926 314.058C570.644 315.573 569.099 316.768 566.904 317.729L590.953 372.698ZM618.085 352.386C627.991 340.229 631.305 325.647 631.305 311.942H571.305C571.305 314.109 571.042 315.166 570.962 315.431C570.907 315.615 571.027 315.153 571.571 314.486L618.085 352.386ZM559.496 377.928C551.72 377.928 544.037 378.734 536.499 380.409L549.515 438.98C552.577 438.299 555.886 437.928 559.496 437.928V377.928ZM513.012 409.168L511.834 476.299L571.825 477.351L573.003 410.221L513.012 409.168ZM535.946 506.243C538.765 506.806 541.477 507.368 544.082 507.926L556.654 449.258C553.763 448.638 550.783 448.022 547.713 447.408L535.946 506.243ZM546.403 508.329C550.557 508.883 554.731 509.181 558.907 509.181V449.181C557.586 449.181 556.068 449.086 554.333 448.855L546.403 508.329ZM558.907 509.181C564.9 509.181 571.023 508.613 577.19 507.626L567.711 448.38C564.064 448.963 561.158 449.181 558.907 449.181V509.181ZM578.334 507.42C586.555 505.776 594.337 502.794 601.551 498.531L571.027 446.875C569.604 447.716 568.161 448.267 566.567 448.586L578.334 507.42ZM602.395 498.013C610.717 492.718 617.459 485.714 622.515 477.408L571.263 446.211C570.822 446.934 570.498 447.193 570.183 447.393L602.395 498.013ZM622.017 478.197C629.143 467.271 631.305 454.971 631.305 443.849H571.305C571.305 445.65 571.123 446.549 571.069 446.769C571.025 446.949 571.144 446.366 571.76 445.421L622.017 478.197ZM631.305 443.849C631.305 432.639 629.11 420.544 622.329 409.694L571.449 441.494C571.013 440.797 570.968 440.44 571.042 440.745C571.125 441.088 571.305 442.058 571.305 443.849H631.305ZM622.802 410.478C617.894 402.064 611.168 394.636 602.374 389.192L570.793 440.208C570.698 440.149 570.615 440.088 570.549 440.035C570.484 439.981 570.454 439.949 570.457 439.953C570.46 439.956 570.655 440.161 570.975 440.71L622.802 410.478ZM603.225 389.738C595.505 384.592 586.929 381.241 577.779 379.777L568.3 439.023C568.965 439.13 569.418 439.312 569.942 439.661L603.225 389.738ZM578.923 379.982C572.474 378.693 565.959 377.928 559.496 377.928V437.928C561.276 437.928 563.79 438.144 567.156 438.817L578.923 379.982Z" fill="#FAFAFA" mask="url(#path-4-outside-1_2169_277)"/>
</g>
<defs>
<clipPath id="clip0_2169_277">
<rect width="800" height="800" fill="white"/>
</clipPath>
</defs>
</svg>
